<?xml version="1.0" standalone="no"?><!DOCTYPE svg PUBLIC "-//W3C//DTD SVG 1.1//EN" "http://www.w3.org/Graphics/SVG/1.1/DTD/svg11.dtd"><svg t="1623913345949" class="icon" viewBox="0 0 1299 1024" version="1.1" xmlns="http://www.w3.org/2000/svg" p-id="2465" xmlns:xlink="http://www.w3.org/1999/xlink" width="253.7109375" height="200"><defs><style type="text/css"></style></defs><path d="M1075.206695 0H224.499003A226.934154 226.934154 0 0 0 0.006695 228.627692V795.569231A226.934154 226.934154 0 0 0 224.499003 1024h850.707692a226.894769 226.894769 0 0 0 224.492308-228.430769V228.627692A226.894769 226.894769 0 0 0 1075.206695 0z m17.880616 292.115692L807.036849 590.769231a215.118769 215.118769 0 0 1-312.359384 0L206.775926 290.382769a52.145231 52.145231 0 0 1 0.866462-72.940307 49.979077 49.979077 0 0 1 71.68 0.866461l288.059077 300.386462a114.688 114.688 0 0 0 166.951384 0l286.011077-298.771693a49.979077 49.979077 0 0 1 71.68-0.905846 51.948308 51.948308 0 0 1 1.024 72.822154z m0 0" p-id="2466" fill="#707070"></path></svg>